<svg width="1762" height="1619" viewBox="0 0 1762 1619" fill="none" xmlns="http://www.w3.org/2000/svg">
<path d="M681 358.5C608.2 400.1 382.333 360.833 278.5 336C169.7 318 138.833 379.5 137 412.5C124 513.667 109.2 733.9 154 805.5C210 895 303 781 295.5 692C288 603 448 597 502 621C556 645 597 667.5 599 889C600.6 1066.2 412.333 1020.17 318 975C295.667 956.333 216.7 957 79.4998 1109C47.9998 1170.5 -65.5002 1425.5 79.4998 1554C224.5 1682.5 470.5 1559.5 565.5 1539C641.5 1522.6 554.833 1467.5 502 1442C452.333 1409.83 409.6 1323.9 636 1237.5C678.5 1211.5 915.5 1241 774 1442C660.8 1602.8 1064.5 1526.33 1280.5 1468C1314.9 1386 1294.83 1247.83 1280.5 1189C1261.83 1138.67 1263.6 1023.5 1420 965.5C1452.8 935.5 1536.67 978 1574.5 1003C1667.67 1024 1826.8 997.9 1718 725.5C1609.2 453.1 1474 605.667 1420 716C1398.83 737.667 1347.6 768 1312 716C1276.4 664 1297.17 474.667 1312 386.5C1250.8 426.9 1053.17 397 962 377C911.2 367.8 940.833 288.833 962 250.5C1078 172.9 1016.67 79.1669 971.5 42.0002C930.5 16.0002 817.6 -20.3998 694 42.0002C570.4 104.4 642.5 207 694 250.5C724 263.5 725.5 325 681 358.5Z" stroke="url(#paint0_linear)" stroke-width="14"/>
<defs>
<linearGradient id="paint0_linear" x1="1939.5" y1="930" x2="24.5001" y2="736" gradientUnits="userSpaceOnUse">
<stop stop-color="#FF8A00"/>
<stop offset="1" stop-color="#FFBA69"/>
</linearGradient>
</defs>
</svg>
