<svg width="701" height="603" viewBox="0 0 701 603" fill="none" xmlns="http://www.w3.org/2000/svg">
<path d="M581.001 445.94C581.001 445.94 558.331 473.61 576.331 515.44L395.331 593.94L377.961 597.58L369.961 562.58L375.311 518.41V494.27L581.001 445.94Z" fill="#D5D6DB"/>
<path d="M9.43115 428.06L259.951 382.39L591.901 435.27L385.721 509.5L9.43115 428.06Z" fill="#CC9453"/>
<path d="M9.43102 428.05C9.43102 428.05 -13.999 472.44 13.001 513.44L384.501 593.94C384.501 593.94 361.441 558.58 385.691 509.5L9.43102 428.05Z" fill="#B46304"/>
<path opacity="0.1" d="M20.5009 443.44C20.5009 443.44 7.11092 475.92 20.5009 496.94V443.44Z" fill="black"/>
<path d="M384.501 593.94L591.901 505.44C591.901 505.44 603.501 507.94 596.001 516.44C588.501 524.94 388.501 602.44 388.501 602.44L13.001 513.44L384.501 593.94Z" fill="#9F5600"/>
<path opacity="0.1" d="M367.501 518.44C367.501 518.44 347.501 542.44 367.501 578.44V518.44Z" fill="black"/>
<path opacity="0.1" d="M464.328 518.034L374.619 547.963L374.936 548.912L464.645 518.983L464.328 518.034Z" fill="black"/>
<path opacity="0.1" d="M482.297 515.056L374.591 556.013L374.946 556.947L482.652 515.991L482.297 515.056Z" fill="black"/>
<path opacity="0.1" d="M498.798 514.912L375.192 565.506L375.571 566.432L499.177 515.838L498.798 514.912Z" fill="black"/>
<path opacity="0.1" d="M516.743 510.58L376.635 573.871L377.046 574.782L517.155 511.491L516.743 510.58Z" fill="black"/>
<path opacity="0.1" d="M531.818 510.601L377.744 577.946L378.144 578.863L532.219 511.517L531.818 510.601Z" fill="black"/>
<path opacity="0.1" d="M564.794 505L380.067 584.786L380.464 585.704L565.19 505.919L564.794 505Z" fill="black"/>
<path opacity="0.3" d="M102.501 432.94L278.501 395.94L385.721 416.44L241.501 462.94L102.501 432.94Z" fill="white"/>
<path d="M680.291 349.76C680.291 349.76 657.631 377.42 675.631 419.26L494.631 497.76L477.261 501.42L469.261 466.42L474.691 422.26V398.09L680.291 349.76Z" fill="#D5D6DB"/>
<path d="M108.731 331.87L359.241 286.21L691.201 339.09L485.021 413.32L108.731 331.87Z" fill="#FFBA69"/>
<path d="M108.691 331.87C108.691 331.87 85.2509 376.26 112.251 417.26L483.751 497.76C483.751 497.76 460.701 462.37 484.981 413.31L108.691 331.87Z" fill="#FFBA69"/>
<path opacity="0.1" d="M119.791 347.26C119.791 347.26 106.411 379.73 119.791 400.76V347.26Z" fill="black"/>
<path d="M483.791 497.76L691.201 409.26C691.201 409.26 702.791 411.76 695.291 420.26C687.791 428.76 487.791 506.26 487.791 506.26L112.291 417.26L483.791 497.76Z" fill="#FFBA69"/>
<path opacity="0.1" d="M466.791 422.26C466.791 422.26 446.791 446.26 466.791 482.26V422.26Z" fill="black"/>
<path opacity="0.1" d="M563.626 421.865L473.917 451.794L474.233 452.743L563.943 422.813L563.626 421.865Z" fill="black"/>
<path opacity="0.1" d="M581.607 418.882L473.901 459.838L474.257 460.773L581.962 419.817L581.607 418.882Z" fill="black"/>
<path opacity="0.1" d="M598.094 418.724L474.487 469.318L474.866 470.244L598.472 419.65L598.094 418.724Z" fill="black"/>
<path opacity="0.1" d="M616.05 414.394L475.942 477.685L476.354 478.596L616.462 415.305L616.05 414.394Z" fill="black"/>
<path opacity="0.1" d="M631.111 414.402L477.037 481.748L477.437 482.664L631.512 415.318L631.111 414.402Z" fill="black"/>
<path opacity="0.1" d="M664.094 408.802L479.368 488.587L479.764 489.505L664.49 409.72L664.094 408.802Z" fill="black"/>
<path opacity="0.45" d="M201.801 336.76L377.801 299.76L485.021 320.26L340.801 366.76L201.801 336.76Z" fill="white"/>
<path d="M691.201 339.09C691.201 339.09 700.291 342.76 694.961 348.42C689.631 354.08 485.021 413.31 485.021 413.31L691.201 339.09Z" fill="#FFBA69"/>
<path d="M689.691 239.73C689.691 239.73 667.021 289.4 685.021 331.23L504.021 387.73L486.691 391.4L478.691 356.4L484.041 312.23V288.06L689.691 239.73Z" fill="#D5D6DB"/>
<path d="M118.161 221.85L368.681 176.18L700.641 229.06L494.451 303.29L118.161 221.85Z" fill="#F4AB56"/>
<path d="M118.161 221.84C118.161 221.84 94.691 266.23 121.691 307.23L493.191 387.73C493.191 387.73 470.131 352.34 494.411 303.29L118.161 221.84Z" fill="#FF8A00"/>
<path opacity="0.1" d="M129.231 237.23C129.231 237.23 115.841 269.71 129.231 290.73V237.23Z" fill="black"/>
<path opacity="0.1" d="M476.231 312.23C476.231 312.23 456.231 336.23 476.231 372.23V312.23Z" fill="black"/>
<path opacity="0.1" d="M573.069 311.833L483.359 341.762L483.676 342.711L573.385 312.782L573.069 311.833Z" fill="black"/>
<path opacity="0.1" d="M591.043 308.855L483.337 349.812L483.692 350.746L591.398 309.79L591.043 308.855Z" fill="black"/>
<path opacity="0.1" d="M607.52 308.703L483.914 359.296L484.293 360.222L607.899 309.628L607.52 308.703Z" fill="black"/>
<path opacity="0.1" d="M625.49 304.363L485.382 367.653L485.794 368.565L625.902 305.274L625.49 304.363Z" fill="black"/>
<path opacity="0.1" d="M640.557 304.381L486.482 371.726L486.883 372.642L640.958 305.297L640.557 304.381Z" fill="black"/>
<path opacity="0.1" d="M673.536 298.787L488.81 378.572L489.207 379.49L673.933 299.705L673.536 298.787Z" fill="black"/>
<path opacity="0.3" d="M211.231 226.73L387.231 189.73L494.451 210.23L350.231 256.73L211.231 226.73Z" fill="white"/>
<path d="M582.535 476L579 498L601.977 502L617 492L616.116 476H582.535Z" fill="#312A2A"/>
<path d="M446.676 63.1679C446.676 63.1679 444.676 86.1679 439.676 87.1679C434.676 88.1679 450.676 128.168 450.676 128.168H474.676L493.676 123.168L484.676 101.168C484.676 101.168 472.676 85.1679 481.676 72.1679C490.676 59.1679 446.676 63.1679 446.676 63.1679Z" fill="#BA8C93"/>
<path d="M396.676 239.167C396.676 239.167 370.676 289.167 391.676 299.167C412.676 309.167 417.676 308.167 417.676 311.167C417.676 314.167 413.676 313.167 415.676 318.167C417.676 323.167 411.676 343.167 417.676 355.167C423.676 367.167 421.676 376.167 421.676 376.167C421.676 376.167 421.676 377.167 423.676 381.167C425.676 385.167 426.676 388.167 425.676 390.167C424.676 392.167 418.676 405.167 424.676 408.167C430.676 411.167 461.676 413.167 464.676 408.167C467.676 403.167 461.676 400.167 464.676 397.167C467.676 394.167 469.676 393.167 467.676 391.167C465.676 389.167 463.676 364.167 463.676 364.167C463.676 364.167 468.676 335.167 466.676 331.167C464.676 327.167 461.676 323.167 463.676 320.167C465.676 317.167 467.676 318.167 468.676 314.167C469.676 310.167 471.676 301.167 471.676 301.167L482.676 300.167L508.676 305.167C508.676 305.167 537.676 337.167 569.676 347.167C569.676 347.167 578.676 356.167 581.676 356.167C584.676 356.167 584.676 356.167 583.676 358.167C582.676 360.167 579.676 360.167 581.676 362.167C583.676 364.167 586.676 361.167 584.676 364.167C582.676 367.167 580.676 367.167 582.676 369.167C584.676 371.167 581.676 382.167 581.676 383.167C581.676 384.167 572.676 478.167 575.676 480.167C578.676 482.167 620.676 488.167 623.676 480.167C626.676 472.167 621.676 462.167 621.676 462.167C621.676 462.167 636.676 342.167 632.676 334.167C628.676 326.167 614.676 290.167 539.676 267.167C539.676 267.167 518.676 263.167 518.676 260.167C518.676 257.167 516.676 238.167 512.676 237.167C508.676 236.167 485.676 235.167 485.676 235.167L456.676 244.167L416.676 237.167L396.676 239.167Z" fill="#2F2E41"/>
<path d="M431.676 407.167L426.676 425.167C426.676 425.167 422.676 454.167 427.676 461.167C431.603 466.666 438.616 473.398 451.62 474.58C455.265 474.914 458.915 473.994 461.966 471.973C465.017 469.951 467.286 466.949 468.399 463.462C468.548 463.045 468.641 462.609 468.676 462.167C468.676 460.167 465.676 436.167 465.676 436.167L460.676 411.167L459.676 404.167L431.676 407.167Z" fill="#2F2E41"/>
<path d="M577.676 493.168C577.676 493.168 572.676 488.168 571.676 493.168C570.676 498.168 566.676 519.168 573.676 520.168C580.676 521.168 647.676 531.168 654.676 527.168C661.676 523.168 674.676 517.168 666.676 514.168C658.676 511.168 635.676 502.168 635.676 502.168C635.676 502.168 622.676 485.168 620.676 484.168C618.676 483.168 607.676 485.168 602.676 489.168C597.676 493.168 577.676 493.168 577.676 493.168Z" fill="#2F2E41"/>
<path d="M471.271 87C487.84 87 501.271 72.4493 501.271 54.5C501.271 36.5507 487.84 22 471.271 22C454.702 22 441.271 36.5507 441.271 54.5C441.271 72.4493 454.702 87 471.271 87Z" fill="#BA8C93"/>
<path d="M467.676 123.168L455.676 110.168L442.375 84.168C442.375 84.168 432.676 81.168 430.676 86.168C428.676 91.168 392.676 107.168 392.676 107.168C392.676 107.168 401.676 191.168 397.676 199.168C393.676 207.168 386.676 239.168 392.676 242.168C398.676 245.168 426.676 242.168 435.676 246.168C444.676 250.168 470.676 250.168 477.676 245.168C484.676 240.168 486.676 236.168 493.676 239.168C499.635 241.722 513.567 154.407 517.578 128.387C517.916 126.202 517.635 123.965 516.768 121.931C515.9 119.897 514.481 118.146 512.67 116.877C503.697 110.583 487.537 99.7376 484.676 101.168C480.676 103.168 467.676 123.168 467.676 123.168Z" fill="#8B8C4F"/>
<path d="M510.676 119.167C513.024 119.755 515.136 121.046 516.729 122.869C518.322 124.691 519.319 126.958 519.587 129.363L527.676 202.167C527.676 202.167 507.676 245.167 497.676 216.167C487.676 187.167 510.676 119.167 510.676 119.167Z" fill="#8B8C4F"/>
<path d="M508.676 209.167L530.676 203.167C530.676 203.167 534.676 231.167 538.676 231.167C542.676 231.167 524.676 247.167 515.676 245.167C506.676 243.167 493.676 236.167 492.676 231.167C491.676 226.167 501.676 205.167 501.676 205.167L508.676 209.167Z" fill="#8B8C4F"/>
<path d="M451.834 68C453.765 63.6692 453.43 58.6175 455.027 54.1479C455.882 51.7547 457.269 49.5949 459.081 47.8372C460.893 46.0795 463.079 44.7715 465.47 44.0155C467.861 43.2595 470.392 43.0758 472.864 43.4789C475.337 43.882 477.684 44.8609 479.723 46.3391C481.777 47.8285 483.836 49.921 486.343 49.6366C489.043 49.3305 491.451 46.2675 493.934 47.39C496.685 48.6342 495.942 53.6484 498.729 54.8066C500.196 55.4162 501.93 54.4775 502.776 53.1148C503.516 51.6827 503.92 50.0956 503.955 48.4781C504.339 44.5041 504.687 40.2982 502.992 36.6961C502.279 35.4752 501.658 34.2013 501.133 32.8853C500.837 31.6563 500.718 30.39 500.78 29.1262C500.765 24.4552 500.429 19.583 498.118 15.5466C495.553 11.0675 490.811 8.20337 485.865 6.95363C480.918 5.70389 475.735 5.89551 470.657 6.33275C462.261 7.05555 453.505 8.60491 446.89 13.9126C445.991 14.5805 445.217 15.4072 444.606 16.3534C444.025 17.4774 443.615 18.6841 443.389 19.9327C441.959 25.8551 439.814 31.5751 437.005 36.9627C435.653 39.2466 434.549 41.6726 433.71 44.1982C433.009 46.7646 433.056 49.6894 434.525 51.8953C435.72 53.6912 437.631 54.6483 439.133 56.1166C440.621 57.5715 441.317 60.3695 442.965 61.4711C444.404 62.4329 446.127 61.754 447.595 62.7733C449.479 64.082 449.615 66.9515 451.834 68Z" fill="#6F4A1F"/>
<path d="M472.676 138.167L475.676 132.167C475.676 132.167 519.676 145.167 528.676 157.167C528.676 157.167 550.676 143.167 562.676 145.167L574.676 147.167L537.676 180.167L490.676 176.167L472.676 138.167Z" fill="#F2F2F2"/>
<path d="M470.676 132.167L429.676 189.167L488.676 218.167C488.676 218.167 494.192 221.167 498.434 218.167L537.676 200.167L574.676 147.167L537.676 166.167C537.676 166.167 533.676 158.167 525.676 162.167L470.676 132.167Z" fill="#FFD099"/>
<path d="M533.676 233.168L541.676 212.168C541.676 212.168 559.676 189.168 549.676 178.168C539.676 167.168 528.676 210.168 528.676 210.168L533.676 233.168Z" fill="#BA8C93"/>
<path d="M441.374 229.816L458.83 215.664C458.83 215.664 485.94 204.799 482.808 190.267C479.677 175.734 448.588 207.412 448.588 207.412L441.374 229.816Z" fill="#BA8C93"/>
<path opacity="0.1" d="M398.176 128.668H397.176C397.176 128.668 381.676 110.168 378.676 135.168C375.676 160.168 365.676 243.168 391.676 246.168C417.676 249.168 436.176 233.668 436.176 233.668C436.176 233.668 455.176 204.668 448.176 204.668C444.789 204.668 435.578 203.147 427.176 203.668C418.213 204.224 410.16 206.748 410.676 204.168C411.676 199.168 426.176 135.668 398.176 128.668Z" fill="black"/>
<path d="M396.676 109.167L392.676 107.167C392.676 107.167 376.676 110.167 373.676 135.167C370.676 160.167 360.676 243.167 386.676 246.167C412.676 249.167 447.676 242.167 447.676 242.167C447.676 242.167 454.676 204.167 447.676 204.167C440.676 204.167 404.676 209.167 405.676 204.167C406.676 199.167 424.676 116.167 396.676 109.167Z" fill="#8B8C4F"/>
<path d="M519.176 221.668L530.203 204.767L537.176 232.668L519.176 240.668V221.668Z" fill="#8B8C4F"/>
<path d="M469.122 40.0639C454.804 41.8704 448.573 52.1074 447.247 57C439.79 46.2737 428.355 28.7736 440.784 15.7888C443.127 13.3414 453.213 -5.66377 478.568 1.67521C503.923 9.01418 494.974 15.2242 500.443 21.4341C505.911 27.644 529.277 33.2895 509.391 40.0639C489.505 46.8383 487.019 37.8057 469.122 40.0639Z" fill="#34315E"/>
<g filter="url(#filter0_d)">
<path d="M496 182.5L470.5 166.5L479.5 146.5L506.5 172L496 182.5Z" fill="#C5C5C5"/>
</g>
<defs>
<filter id="filter0_d" x="466.5" y="146.5" width="44" height="44" filterUnits="userSpaceOnUse" color-interpolation-filters="sRGB">
<feFlood flood-opacity="0" result="BackgroundImageFix"/>
<feColorMatrix in="SourceAlpha" type="matrix" values="0 0 0 0 0 0 0 0 0 0 0 0 0 0 0 0 0 0 127 0" result="hardAlpha"/>
<feOffset dy="4"/>
<feGaussianBlur stdDeviation="2"/>
<feColorMatrix type="matrix" values="0 0 0 0 0 0 0 0 0 0 0 0 0 0 0 0 0 0 0.25 0"/>
<feBlend mode="normal" in2="BackgroundImageFix" result="effect1_dropShadow"/>
<feBlend mode="normal" in="SourceGraphic" in2="effect1_dropShadow" result="shape"/>
</filter>
</defs>
</svg>
